<?xml version="1.0" encoding="UTF-8" standalone="no"?>
<!-- Created with Inkscape (http://www.inkscape.org/) -->

<svg
   width="1000"
   height="1000"
   viewBox="0 0 264.58333 264.58333"
   version="1.1"
   id="svg1"
   xml:space="preserve"
   inkscape:version="1.4.2 (f4327f4, 2025-05-13)"
   sodipodi:docname="BS_primary.svg"
   inkscape:export-filename="BS_primary.png"
   inkscape:export-xdpi="384"
   inkscape:export-ydpi="384"
   xmlns:inkscape="http://www.inkscape.org/namespaces/inkscape"
   xmlns:sodipodi="http://sodipodi.sourceforge.net/DTD/sodipodi-0.dtd"
   xmlns="http://www.w3.org/2000/svg"
   xmlns:svg="http://www.w3.org/2000/svg"><sodipodi:namedview
     id="namedview1"
     pagecolor="#ffffff"
     bordercolor="#000000"
     borderopacity="0.25"
     inkscape:showpageshadow="2"
     inkscape:pageopacity="0.0"
     inkscape:pagecheckerboard="0"
     inkscape:deskcolor="#d1d1d1"
     inkscape:document-units="mm"
     showgrid="true"
     inkscape:zoom="15.581903"
     inkscape:cx="859.97196"
     inkscape:cy="375.14672"
     inkscape:window-width="1920"
     inkscape:window-height="991"
     inkscape:window-x="-9"
     inkscape:window-y="-9"
     inkscape:window-maximized="1"
     inkscape:current-layer="svg1"><inkscape:grid
       id="grid1"
       units="mm"
       originx="0"
       originy="0"
       spacingx="0.99999999"
       spacingy="0.99999999"
       empcolor="#0099e5"
       empopacity="0.30196078"
       color="#0099e5"
       opacity="0.14901961"
       empspacing="5"
       enabled="true"
       visible="true" /></sodipodi:namedview><defs
     id="defs1" /><path
     style="fill:#ffffff"
     d="m 97.517167,182.62004 c 0.589251,-0.63461 6.457403,-5.68118 8.956513,-7.70254 6.127,-4.9557 13.69007,-10.33142 20.37286,-14.48074 12.66599,-7.86426 21.75809,-12.59547 40.11236,-20.87309 14.28184,-6.44099 19.28733,-9.50396 34.58043,-21.16052 2.82123,-2.15037 5.0538,-3.97585 4.96127,-4.05662 -0.0925,-0.0808 -2.87583,-0.87509 -6.1851,-1.76514 -5.62892,-1.51395 -7.87173,-2.12793 -18.68392,-5.11481 -4.36624,-1.20618 -21.26917,-5.8147 -24.31919,-6.63053 l -1.72959,-0.46264 -3.33723,2.49102 c -1.83548,1.37007 -4.94148,3.72528 -6.90223,5.2338 l -3.56501,2.74278 1.34827,0.36367 c 0.74155,0.20002 3.39083,0.90111 5.8873,1.55798 15.18773,3.99619 21.72771,5.89938 22.04689,6.41582 0.0543,0.0878 -0.46876,0.78839 -1.1623,1.55682 -1.03057,1.14187 -1.80973,1.7131 -4.26424,3.12627 -12.89503,7.42422 -25.21187,15.2682 -32.22524,20.52263 -12.78329,9.57726 -24.08418,20.87908 -32.13421,32.13685 -3.87446,5.41834 -5.351218,7.81525 -3.757633,6.09899 z"
     id="path3"
     sodipodi:nodetypes="ssssssssscsscssssssss" /><path
     style="fill:#ffffff"
     d="m 55.277651,165.71282 c 12.76805,-11.79056 23.528963,-20.15462 37.51123,-29.15608 7.082743,-4.55971 11.290899,-6.96021 25.036709,-14.2819 2.99234,-1.59387 5.88993,-3.24989 6.43909,-3.68006 4.48091,-3.50992 18.90098,-14.30238 23.16584,-17.33809 8.64071,-6.150417 18.37926,-12.428399 26.95636,-17.37749 3.48419,-2.010421 3.54359,-2.034949 5.48906,-2.26676 2.78348,-0.331663 7.14319,-1.149675 10.79767,-2.025963 l 3.13074,-0.750703 2.78056,0.57095 c 6.86743,1.410133 10.46565,2.310449 14.44481,3.614254 2.35132,0.770431 4.27513,1.472453 4.27513,1.560049 0,0.331643 -5.87855,1.55199 -9.20525,1.910947 -6.17502,0.666296 -9.39946,-0.892057 -11.82086,-5.712942 l -0.538,-1.071135 -1.19887,1.04213 c -2.20924,1.920398 -2.24136,1.972024 -1.94935,3.133288 0.38591,1.534729 1.21719,2.895754 2.53832,4.155891 2.63423,2.51263 6.50878,3.669048 13.57603,4.05197 2.41212,0.130695 2.68471,0.184245 2.58218,0.507278 -0.063,0.198638 -0.58137,1.490487 -1.15183,2.870777 -0.57046,1.380293 -1.00658,2.540233 -0.96916,2.577653 0.0374,0.0374 1.99039,-1.08137 4.33992,-2.486215 2.34954,-1.404841 4.30709,-2.519054 4.35011,-2.47603 0.043,0.04302 -0.39636,1.25183 -0.97642,2.686234 -0.58005,1.434401 -1.05464,2.676011 -1.05464,2.759131 0,0.0831 5.898,-1.0768 8.41068,-2.577589 2.51267,-1.500788 0.76985,-2.685191 0.82303,-2.632006 0.0532,0.05318 -0.11193,0.649523 -0.36694,1.325194 -1.43183,3.793911 -1.66561,4.512761 -1.42395,4.378661 0.46585,-0.25852 5.48604,-3.45427 7.28264,-4.635971 0.95794,-0.630085 1.74172,-1.105072 1.74172,-1.055526 0,0.04955 -0.34187,0.831621 -0.7597,1.737943 -1.03842,2.252444 -2.19998,4.98804 -2.13985,5.03959 0.0794,0.0681 2.94445,-1.685576 6.69967,-4.100791 6.28295,-4.040952 11.16588,-8.006984 15.29552,-12.423379 l 1.61962,-1.732084 -1.12123,-0.312518 C 227.00288,75.162743 208.9811,71.746219 181.42046,68.56158 l -3.37788,-0.390315 -1.26671,0.617851 c -0.69668,0.339819 -3.45177,1.620979 -6.12241,2.847024 -9.45354,4.339958 -17.49972,8.60186 -28.60645,15.152257 l -7.07244,4.171105 -0.84447,-0.480207 c -0.46446,-0.264114 -3.93207,-2.536131 -7.70579,-5.048926 -5.88688,-3.919865 -9.20499,-6.162341 -20.58398,-13.911259 -3.53798,-2.409308 -6.608349,-3.470661 -11.717025,-4.050286 -2.311861,-0.262301 -56.285134,-0.64219 -55.988571,-0.394074 0.351018,0.293676 10.167769,2.893063 18.937417,5.014457 9.017222,2.181283 10.847733,2.614519 19.817145,4.690218 2.074711,0.480129 4.378874,1.145157 5.120362,1.477841 1.678639,0.753154 6.375991,3.585079 17.497148,10.548627 8.397664,5.258225 18.258194,11.534117 18.472794,11.757297 0.14058,0.14621 -0.29892,0.48283 -6.34421,4.85917 -14.168802,10.25715 -25.635903,20.15358 -38.623854,33.33349 -13.870248,14.07524 -24.925139,27.72882 -33.987819,41.97739 l -1.739173,2.73437 7.043715,-7.07406 c 3.874043,-3.89073 8.801269,-8.69706 10.949392,-10.68073 z"
     id="path2"
     sodipodi:nodetypes="ssscsssscssssscssssssssssssscssssssscsscssscssssssssssssscss" /></svg>
