<?xml version="1.0" encoding="UTF-8" standalone="no"?>
<!-- Created with Inkscape (http://www.inkscape.org/) -->

<svg
   width="800"
   height="120"
   viewBox="0 0 211.66666 31.75"
   version="1.1"
   id="svg1"
   xml:space="preserve"
   xmlns="http://www.w3.org/2000/svg"
   xmlns:svg="http://www.w3.org/2000/svg"><defs
     id="defs1" /><g
     id="layer1"><path
       style="fill:#ffffff"
       d="m 189.18518,18.688161 c 0.387,-1.282659 0.73574,-2.362332 0.77498,-2.399273 0.0392,-0.03694 1.2193,1.026011 2.62235,2.362117 l 2.55102,2.429283 2.07869,0.002 c 1.14329,0.0011 2.0787,-0.02434 2.0787,-0.05656 0,-0.03222 -1.13689,-1.104855 -2.52642,-2.383628 -1.38952,-1.278773 -2.54286,-2.368564 -2.56296,-2.421759 -0.0201,-0.05319 1.63253,-1.099618 3.67252,-2.325384 l 3.70906,-2.228665 -2.12117,-0.0352 -2.12116,-0.0352 -1.10363,0.692101 c -0.607,0.380656 -1.96709,1.234357 -3.02243,1.897113 -2.98895,1.87707 -3.13431,1.95517 -3.13255,1.68306 8.1e-4,-0.126302 0.25985,-1.089607 0.57564,-2.140678 0.31578,-1.051071 0.57415,-1.960911 0.57415,-2.021867 0,-0.06096 -0.76272,-0.09474 -1.69493,-0.07508 l -1.69494,0.03575 -0.064,0.70475 c -0.0352,0.387612 -0.12152,0.685879 -0.19188,0.662814 -0.0704,-0.02306 -0.40117,0.899518 -0.73514,2.050182 -0.83631,2.881459 -1.65409,5.647078 -1.72801,5.843931 -0.0485,0.129218 0.30104,0.156391 1.64842,0.128136 l 1.71001,-0.03586 z"
       id="path12" /><path
       style="fill:#ffffff"
       d="m 168.89289,20.860098 c 0.0353,-0.123332 0.24309,-0.815268 0.46183,-1.537637 l 0.39772,-1.313398 h 1.43966 1.43966 l 1.3371,1.530476 1.3371,1.530476 1.97308,0.0072 1.97307,0.0072 -0.25275,-0.288307 c -0.13901,-0.158568 -0.68151,-0.778428 -1.20555,-1.377466 -0.52405,-0.599037 -0.99598,-1.108379 -1.04875,-1.131871 -0.28461,-0.126706 -0.003,-0.249259 0.73023,-0.31785 0.85542,-0.08001 1.64315,-0.398702 2.0048,-0.811064 0.28935,-0.329922 1.41242,-4.096032 1.36507,-4.577617 -0.0276,-0.280527 -0.16314,-0.476867 -0.47331,-0.685518 l -0.43465,-0.292398 h -5.90484 -5.90484 l -0.19661,0.823124 c -0.19281,0.807185 -0.19142,0.824967 0.0714,0.918344 0.14743,0.05237 2.23589,0.118448 4.64104,0.146836 3.24601,0.03831 4.40657,0.09214 4.50329,0.208881 0.15571,0.187937 -0.39806,2.117113 -0.65452,2.280152 -0.0896,0.05693 -1.53612,0.104395 -3.2146,0.105474 -2.38848,0.0015 -3.03887,-0.03285 -2.99236,-0.158208 0.16931,-0.456338 0.38983,-1.510134 0.3288,-1.57126 -0.12357,-0.12378 -1.55099,-0.317243 -2.34635,-0.31801 l -0.77026,-7.42e-4 -0.49704,1.697807 c -0.27337,0.933794 -0.71826,2.442756 -0.98864,3.353249 -0.27037,0.910493 -0.49159,1.732167 -0.49159,1.825943 0,0.133121 0.36268,0.170501 1.65433,0.170501 1.46586,0 1.66165,-0.02555 1.71846,-0.224238 z"
       id="path11" /><path
       style="fill:#ffffff"
       d="m 149.2904,19.716716 c 0.65952,-0.752191 1.48694,-1.696679 1.83872,-2.098864 1.43085,-1.635865 2.91398,-3.262937 3.00681,-3.298627 0.10539,-0.04052 0.34919,0.711165 1.09304,3.370028 0.25622,0.915883 0.58107,2.054456 0.72188,2.530163 l 0.25602,0.86492 h 1.76651 1.7665 l -0.44759,-1.441534 c -0.24618,-0.792844 -0.93462,-2.926314 -1.52988,-4.741045 l -1.08228,-3.299512 -1.81611,0.0073 -1.8161,0.0073 -4.09343,4.627133 c -2.25139,2.544923 -4.11262,4.675127 -4.13608,4.733786 -0.0234,0.05866 0.70335,0.106654 1.61511,0.106654 h 1.65775 z"
       id="path10" /><path
       style="fill:#ffffff"
       d="m 129.47919,19.514666 c 0.25315,-0.863319 0.52067,-1.728239 0.59449,-1.922046 l 0.13423,-0.352375 h 3.1372 c 2.52586,0 3.1372,0.03323 3.1372,0.170502 0,0.09378 -0.23026,0.939632 -0.51168,1.87968 -0.28142,0.940049 -0.51168,1.728244 -0.51168,1.751544 0,0.0233 0.77011,0.04237 1.71136,0.04237 h 1.71135 l 0.12715,-0.480511 c 0.0699,-0.264281 0.65222,-2.256591 1.29398,-4.427356 0.64177,-2.170764 1.20265,-4.089724 1.2464,-4.264356 l 0.0796,-0.317513 -1.70225,0.03586 -1.70224,0.03586 -0.3633,1.217295 c -0.19982,0.669513 -0.45193,1.520018 -0.56025,1.890011 l -0.19696,0.672716 h -3.18891 c -1.75391,0 -3.18892,-0.03332 -3.18892,-0.07405 0,-0.04073 0.23025,-0.872325 0.51168,-1.847998 0.28142,-0.975673 0.51168,-1.807272 0.51168,-1.847998 0,-0.04073 -0.77088,-0.07405 -1.71305,-0.07405 -1.68824,0 -1.71414,0.0043 -1.78801,0.299169 -0.0412,0.164543 -0.024,0.47734 0.0384,0.695105 0.12384,0.432533 0.0735,0.560168 -0.18228,0.461864 -0.11133,-0.0428 -0.25295,0.202994 -0.4296,0.745613 -0.28099,0.86311 -2.06561,7.092637 -2.06561,7.21035 0,0.0385 0.7672,0.06999 1.70489,0.06999 h 1.7049 z"
       id="path9" /><path
       style="fill:#ffffff"
       d="m 118.21427,20.78499 c 0.64324,-0.320498 0.81788,-0.631798 1.32731,-2.365973 0.53352,-1.816188 0.54897,-2.183855 0.10915,-2.59797 l -0.32993,-0.310643 -4.02535,-0.03723 c -4.51028,-0.04172 -4.29273,0.01172 -4.01389,-0.985879 0.27812,-0.995053 0.0882,-0.955277 4.74166,-0.99323 l 4.14932,-0.03384 0.0422,-0.298547 c 0.0264,-0.18643 0.17048,-0.344312 0.38376,-0.42041 0.18785,-0.06702 0.50358,-0.350723 0.70162,-0.630441 l 0.36008,-0.50858 -5.86063,0.0028 c -7.48665,0.0036 -6.96711,-0.174122 -7.78224,2.662024 -0.62768,2.183935 -0.58542,2.594576 0.29214,2.838704 0.27993,0.07787 2.02512,0.133324 4.20919,0.133743 2.82871,5.42e-4 3.74362,0.03865 3.78319,0.157585 0.0633,0.190203 -0.26783,1.381493 -0.44612,1.605004 -0.0977,0.122537 -1.15883,0.160171 -4.51602,0.160171 h -4.38825 l -0.37053,0.450269 c -0.20378,0.247648 -0.5004,0.681745 -0.65914,0.964661 l -0.28861,0.514392 6.05443,-0.03567 c 5.57516,-0.03285 6.09182,-0.0543 6.52665,-0.270951 z"
       id="path8" /><path
       style="fill:#ffffff"
       d="m 90.043995,18.713813 c 0.375421,-1.303787 0.716857,-2.370426 0.758748,-2.370308 0.04189,1.18e-4 0.824495,0.691436 1.739121,1.536261 0.914626,0.844825 2.073999,1.912887 2.576384,2.37347 l 0.913426,0.837424 2.119748,-0.0352 2.119748,-0.0352 -2.557957,-2.357054 c -1.406877,-1.29638 -2.537985,-2.417074 -2.513574,-2.49043 0.03488,-0.10482 3.196186,-2.07927 6.953431,-4.34289 0.35638,-0.214709 0.30501,-0.220924 -1.85331,-0.224239 l -2.219853,-0.0034 -2.065463,1.305244 c -4.483032,2.832996 -5.071647,3.175233 -5.070126,2.947908 0.0011,-0.169863 0.689931,-2.696499 1.098335,-4.028913 0.0632,-0.206196 -0.07605,-0.224239 -1.730765,-0.224239 -1.678191,0 -1.799497,0.0163 -1.799497,0.241753 0,0.257541 -1.555453,5.815141 -2.183147,7.800336 -0.206387,0.652737 -0.375249,1.243766 -0.375249,1.313398 0,0.07704 0.666929,0.126604 1.703708,0.126604 h 1.703708 z"
       id="path7" /><path
       style="fill:#ffffff"
       d="m 79.089601,20.123313 0.592072,-0.961022 h -4.73492 c -4.052513,0 -4.745342,-0.02721 -4.807235,-0.188769 -0.111043,-0.289863 1.322578,-5.101557 1.575849,-5.289061 0.16341,-0.120977 1.314868,-0.16017 4.705598,-0.16017 h 4.489248 l 0.411215,-0.835313 c 0.226168,-0.459421 0.411215,-0.891882 0.411215,-0.961022 0,-0.08038 -2.135184,-0.125711 -5.921165,-0.125711 -5.886378,0 -5.924512,0.0017 -6.490896,0.288307 -0.313353,0.158569 -0.685324,0.463285 -0.826604,0.677148 -0.14128,0.213862 -0.713044,1.961139 -1.270587,3.882837 -1.125354,3.878784 -1.134706,4.00448 -0.328071,4.409361 0.404479,0.203025 0.969565,0.224059 6.024278,0.224239 l 5.577931,1.99e-4 z"
       id="path6" /><path
       style="fill:#ffffff"
       d="m 50.634228,19.608345 c 1.082866,-0.80913 1.985129,-1.471145 2.005028,-1.471145 0.0199,0 0.570423,0.663106 1.223386,1.473568 l 1.187205,1.473568 h 2.148417 c 1.18163,0 2.148417,-0.0274 2.148417,-0.06089 0,-0.03349 -0.89224,-1.105333 -1.982756,-2.381872 -1.090516,-1.276538 -1.981347,-2.359118 -1.979624,-2.405732 0.0017,-0.04661 0.620535,-0.49842 1.375137,-1.004013 0.754603,-0.505592 2.259749,-1.529081 3.34477,-2.27442 l 1.972764,-1.355162 h -2.208049 -2.208048 l -1.619553,1.177049 c -0.890753,0.647376 -1.73839,1.281651 -1.883636,1.4095 -0.145247,0.127848 -0.297218,0.232451 -0.337715,0.232451 -0.0405,0 -0.601789,-0.634275 -1.247316,-1.4095 l -1.173685,-1.4095 h -2.173843 c -1.516439,0 -2.148167,0.04162 -2.088939,0.137612 0.0467,0.07569 0.915193,1.09425 1.929989,2.263475 1.014796,1.169225 1.825312,2.188451 1.801147,2.264945 -0.02417,0.07649 -1.281737,1.004002 -2.794604,2.061127 -1.512867,1.057125 -3.002736,2.109445 -3.31082,2.338489 l -0.560154,0.416443 2.231817,-0.0024 2.231817,-0.0024 z"
       id="path5" /><path
       style="fill:#ffffff"
       d="m 38.197261,20.705321 c 0.0862,-0.17322 0.266051,-0.355456 0.39967,-0.404969 0.133619,-0.04951 0.429392,-0.325831 0.657273,-0.614042 l 0.414329,-0.524019 h -4.423981 c -3.772335,0 -4.423981,-0.02727 -4.423981,-0.18516 0,-0.101837 0.340044,-1.298311 0.755654,-2.658829 0.41561,-1.360519 0.880746,-2.89907 1.033635,-3.419004 0.152889,-0.519933 0.308296,-1.02447 0.345349,-1.121193 0.05511,-0.143865 -0.256601,-0.17586 -1.713347,-0.17586 h -1.780717 l -0.358223,1.24933 c -0.197022,0.687131 -0.812174,2.774621 -1.367003,4.638867 -0.55483,1.864245 -1.008781,3.436117 -1.008781,3.493049 0,0.05693 2.545514,0.0885 5.656698,0.07014 l 5.656699,-0.03337 z"
       id="path4" /><path
       id="path2"
       style="fill:#ffffff"
       d="M 7.893575 11.602393 L 8.1131999 11.937773 C 8.2560445 12.15615 8.3085002 12.413647 8.2640951 12.674679 C 8.237704 12.829818 8.2296616 12.930539 8.2392904 12.946497 L 8.2398071 12.947013 L 8.2398071 12.94753 L 8.2403239 12.94753 L 8.2408407 12.948047 L 8.2413574 12.948047 L 8.2413574 12.948564 L 8.2418742 12.948564 L 8.242391 12.948564 L 8.2429077 12.948047 L 8.2434245 12.948047 L 8.2439412 12.948047 L 8.244458 12.94753 L 8.2449748 12.94753 C 8.2490564 12.944587 8.254305 12.935284 8.2609945 12.919108 C 8.3110745 12.797998 8.3892713 12.801978 8.604126 12.937195 C 9.2484461 13.342688 11.091022 13.525024 14.546916 13.524756 C 17.4249 13.524532 17.919533 13.552141 17.982882 13.717509 C 18.112579 14.056065 17.894158 14.823727 17.578255 15.140161 C 17.272788 15.446146 17.27243 15.446086 14.132987 15.446086 C 12.40607 15.446086 10.993127 15.399378 10.993127 15.341699 C 10.993127 15.284019 11.08331 14.931953 11.193632 14.559835 C 11.303091 14.190624 11.3679 13.862792 11.33936 13.828097 C 11.3091 13.797787 10.7436 13.690995 10.083105 13.590385 C 9.4226068 13.489773 8.6997401 13.369776 8.4764852 13.323735 L 8.0703084 13.240019 L 7.6822184 14.503507 C 7.4687852 15.198366 7.0946365 16.45867 6.8507446 17.30437 C 6.6068527 18.150069 6.2589448 19.327942 6.0776652 19.921781 C 5.8963856 20.515619 5.7484863 21.019825 5.7484863 21.042643 C 5.7484863 21.065463 8.6122341 21.082951 12.112439 21.081401 C 18.08147 21.078801 18.509645 21.063594 19.010209 20.835937 C 19.702309 20.52117 19.84887 20.274907 20.338293 18.606616 C 20.676658 17.453232 20.720872 17.16349 20.599259 16.896126 C 20.518729 16.719074 20.339334 16.543936 20.200317 16.50752 C 19.827732 16.40992 19.890724 16.253893 20.400822 16.011426 C 20.949842 15.750458 21.093034 15.485896 21.553723 13.881323 C 21.85273 12.839886 21.886557 12.581966 21.760429 12.304675 C 21.448128 11.61809 21.278758 11.602393 14.308171 11.602393 L 7.893575 11.602393 z M 15.796452 17.256828 C 17.281907 17.274182 17.152518 17.431039 16.980876 18.153931 C 16.740063 19.168147 16.763287 19.162138 13.153719 19.162138 C 10.690935 19.162138 9.9700271 19.125842 9.9714844 19.001941 C 9.9725244 18.913851 10.081101 18.496165 10.212813 18.073315 L 10.452592 17.30437 L 13.714408 17.270264 C 14.626658 17.260709 15.3013 17.251043 15.796452 17.256828 z " /></g></svg>
