<svg xmlns="http://www.w3.org/2000/svg" viewBox="0 0 264.58333 264.58333">
  <circle cx="132.291665" cy="132.291665" r="132.291665" fill="#0a0a0a"/>
  <g transform="translate(-36.202741237995355,-30.711140915037106) scale(1.2368087722958707)">
    <path
       fill="#ffffff"
       d="M 101.92763 88.176013 L 61.284631 88.184281 L 68.073881 90.590336 C 80.761542 95.08614 84.282606 96.580078 88.779077 99.374813 C 90.34115 100.3457 93.278227 102.12086 95.305811 103.31979 C 97.333395 104.51871 99.513757 105.81476 100.15099 106.19972 L 101.30958 106.89942 L 101.99016 106.11807 C 102.36443 105.68828 103.50158 104.32163 104.51765 103.08105 L 106.36508 100.82537 L 112.04536 100.81607 C 116.80289 100.80807 117.67547 100.85322 117.41712 101.08944 C 117.15231 101.33152 106.57537 107.90563 100.94681 111.32654 L 99.109196 112.44327 L 97.365633 111.33016 C 96.406521 110.71802 94.246959 109.34945 92.56696 108.289 C 90.886962 107.22854 89.115298 106.10913 88.629732 105.80129 L 87.747099 105.24164 L 85.764274 108.02751 C 84.673837 109.55982 80.895827 114.84219 77.368921 119.76633 C 73.842016 124.69046 69.499966 130.75768 67.719897 133.24871 C 65.939829 135.73975 63.424418 139.24721 62.130058 141.04307 C 60.835697 142.83893 55.996882 149.61693 51.377226 156.1052 C 46.757569 162.59347 41.337886 170.20054 39.333516 173.01011 C 37.329146 175.81969 35.689294 178.17547 35.689294 178.24493 C 35.689294 178.39393 35.49845 178.50842 42.746228 174.01212 C 59.264074 163.76495 61.948987 162.16809 64.444128 161.10851 C 74.50949 156.83419 95.787329 148.39907 114.26486 141.3583 C 129.91537 135.39475 133.13332 134.15266 133.7076 133.85126 C 134.25259 133.56524 138.12424 130.27588 138.01948 130.18792 C 137.77427 129.98203 129.8107 124.99647 124.58723 121.77861 C 121.05344 119.60166 118.02908 117.69547 117.86671 117.5427 C 117.61618 117.30698 117.67668 117.17532 118.26565 116.67247 C 119.0674 115.98795 126.94198 109.82902 133.92619 104.42412 C 136.5717 102.37683 139.98471 99.723614 141.51023 98.527836 C 143.03575 97.332058 144.97074 95.830398 145.81074 95.191089 C 146.89905 94.362789 147.33829 93.894505 147.33829 93.561214 C 147.33829 92.948913 146.04281 90.802182 145.0666 89.796586 C 144.64288 89.360117 143.9082 88.815029 143.43362 88.585291 C 142.5822 88.173126 142.03182 88.167861 101.92763 88.176013 z M 93.06202 121.83752 C 93.376575 121.92832 108.02269 128.43761 108.1381 128.53789 C 108.1864 128.57979 108.17261 128.66766 108.10761 128.73271 C 107.99944 128.84089 99.784914 132.52947 88.35378 137.60297 C 85.862748 138.70856 82.971606 139.9942 81.928849 140.46016 C 78.779958 141.86724 78.242253 142.08656 78.242253 141.96343 C 78.242253 141.8007 78.531446 141.39361 83.904439 133.98614 C 91.738425 123.18582 92.809278 121.76456 93.06202 121.83752 z " /><path
       fill="#ffffff"
       d="m 115.21285,170.84526 c 5.90896,-3.44934 12.2603,-7.14529 14.11409,-8.21322 1.85379,-1.06793 5.78783,-3.33978 8.74231,-5.04856 6.25302,-3.61654 33.89408,-19.42577 45.81814,-26.20557 7.156,-4.06877 12.50389,-7.41877 12.52699,-7.8471 0.004,-0.0731 -1.01189,-0.41791 -2.25741,-0.76622 -2.14331,-0.59938 -18.21717,-5.28119 -29.22881,-8.51344 -2.78069,-0.81622 -5.22556,-1.53276 -5.43306,-1.59232 -0.2075,-0.0596 -0.34969,-0.18731 -0.31599,-0.28389 0.0632,-0.1811 6.1099,-5.4295 7.71926,-6.70014 0.83974,-0.663 1.29095,-0.79606 6.20873,-1.83098 8.58738,-1.80717 12.94227,-2.3164 14.97741,-1.75136 1.00178,0.27814 2.48972,1.65152 5.60599,5.17436 l 2.2666,2.56232 0.24941,-1.71969 c 0.72829,-5.02137 1.42023,-7.37783 2.75202,-9.372211 0.70881,-1.061452 1.0228,-1.323833 2.25058,-1.880687 1.66284,-0.754173 12.31667,-4.2594 24.07259,-7.920148 7.08264,-2.205505 11.28353,-3.526469 11.48087,-3.610145 0.26791,-0.113599 -2.80843,-0.0035 -29.28148,1.047915 -40.5163,1.609168 -39.95144,1.571143 -41.60497,2.800744 -2.98333,2.218464 -34.43513,28.465932 -34.28053,28.608122 0.0267,0.0246 2.1815,0.58346 4.7884,1.24197 2.60689,0.6585 7.44149,1.90069 10.74356,2.76041 5.42154,1.41155 12.90911,3.35831 15.0416,3.9108 l 0.82217,0.21301 -0.61151,0.41258 c -0.33634,0.22692 -3.17102,2.04005 -6.29929,4.02917 -5.27054,3.35129 -6.09728,3.96439 -11.27021,8.35788 -10.96197,9.31025 -15.36554,13.32878 -28.52765,26.0332 -10.53881,10.17235 -13.80847,13.47716 -12.76134,12.89854 0.52138,-0.2881 5.78257,-3.346 11.69153,-6.79534 z" />
  </g>
</svg>